<svg width="21" height="24" viewBox="0 0 21 24" fill="none" xmlns="http://www.w3.org/2000/svg">
<path d="M0 24V16.6701C0 16.2577 0.104125 15.866 0.312375 15.4948C0.520625 15.1237 0.81025 14.8247 1.18125 14.5979L2.625 13.701C2.77812 15.433 3.01875 16.9072 3.34687 18.1237C3.675 19.3402 4.18906 20.6907 4.88906 22.1753L0 24ZM6.85781 21.5258C6.09219 20.1649 5.52344 18.7217 5.15156 17.1959C4.77969 15.6701 4.59375 14.0928 4.59375 12.4639C4.59375 9.8866 5.13537 7.45897 6.21862 5.18103C7.30187 2.90309 8.729 1.17608 10.5 0C12.2719 1.17526 13.6994 2.90227 14.7827 5.18103C15.8659 7.45979 16.4071 9.88742 16.4062 12.4639C16.4062 14.0722 16.2203 15.6342 15.8484 17.1501C15.4766 18.666 14.9078 20.1245 14.1422 21.5258H6.85781ZM10.5 12.866C11.2219 12.866 11.8401 12.6239 12.3546 12.1398C12.8691 11.6557 13.1259 11.073 13.125 10.3918C13.1241 9.71052 12.8673 9.12825 12.3546 8.64495C11.8418 8.16165 11.2236 7.91918 10.5 7.91753C9.77637 7.91588 9.15862 8.15835 8.64675 8.64495C8.13487 9.13155 7.87762 9.71381 7.875 10.3918C7.87237 11.0697 8.12962 11.6524 8.64675 12.1398C9.16387 12.6272 9.78162 12.8693 10.5 12.866ZM21 24L16.1109 22.1753C16.8109 20.6907 17.325 19.3402 17.6531 18.1237C17.9812 16.9072 18.2219 15.433 18.375 13.701L19.8187 14.5979C20.1906 14.8247 20.4807 15.1237 20.6889 15.4948C20.8972 15.866 21.0009 16.2577 21 16.6701V24Z" fill="#B5EC5B"/>
</svg>
