<svg width="24" height="24" viewBox="0 0 24 24" fill="none" xmlns="http://www.w3.org/2000/svg">
<path d="M24 12V21.3333C24 22.0406 23.719 22.7189 23.219 23.219C22.7189 23.719 22.0406 24 21.3333 24H2.66667C1.95942 24 1.28115 23.719 0.781048 23.219C0.280951 22.7189 0 22.0406 0 21.3333V12H24ZM17.3333 0C17.687 0 18.0261 0.140476 18.2761 0.390524C18.5262 0.640573 18.6667 0.979711 18.6667 1.33333V2.66667H21.3333C22.0406 2.66667 22.7189 2.94762 23.219 3.44772C23.719 3.94781 24 4.62609 24 5.33333V9.33333H0V5.33333C0 4.62609 0.280951 3.94781 0.781048 3.44772C1.28115 2.94762 1.95942 2.66667 2.66667 2.66667H5.33333V1.33333C5.33333 0.979711 5.47381 0.640573 5.72386 0.390524C5.97391 0.140476 6.31305 0 6.66667 0C7.02029 0 7.35943 0.140476 7.60948 0.390524C7.85952 0.640573 8 0.979711 8 1.33333V2.66667H16V1.33333C16 0.979711 16.1405 0.640573 16.3905 0.390524C16.6406 0.140476 16.9797 0 17.3333 0Z" fill="#AC60FD"/>
</svg>
