<svg width="24" height="18" viewBox="0 0 24 18" fill="none" xmlns="http://www.w3.org/2000/svg">
<path d="M0.501186 6.76082C0.822192 6.42974 1.25751 6.24374 1.71141 6.24374C2.16532 6.24374 2.60064 6.42974 2.92164 6.76082L8.9745 13.0056L21.0768 0.517812C21.2357 0.353728 21.4244 0.223546 21.6321 0.134699C21.8398 0.0458531 22.0624 8.21106e-05 22.2873 1.10375e-07C22.5121 -8.18898e-05 22.7348 0.0455267 22.9425 0.134222C23.1503 0.222916 23.3391 0.352961 23.4981 0.516929C23.6571 0.680898 23.7833 0.87558 23.8694 1.08986C23.9556 1.30414 23.9999 1.53382 24 1.76579C24.0001 1.99776 23.9559 2.22747 23.8699 2.44181C23.7839 2.65616 23.6579 2.85093 23.499 3.01502L8.9745 18L0.501186 9.25802C0.180277 8.92684 0 8.47772 0 8.00942C0 7.54113 0.180277 7.092 0.501186 6.76082Z" fill="#B5EC5B"/>
</svg>
