<svg width="123" height="113" viewBox="0 0 123 113" fill="none" xmlns="http://www.w3.org/2000/svg">
<path d="M25.3867 38.3629L24.0617 41.4087C23.8547 41.9046 23.5054 42.3283 23.0578 42.6263C22.6102 42.9243 22.0844 43.0833 21.5465 43.0833C21.0086 43.0833 20.4828 42.9243 20.0352 42.6263C19.5877 42.3283 19.2383 41.9046 19.0313 41.4087L17.7063 38.3629C15.3768 32.9749 11.1106 28.6548 5.74954 26.2553L1.66162 24.431C1.16567 24.2031 0.745544 23.8379 0.451038 23.3786C0.156532 22.9194 0 22.3854 0 21.84C0 21.2946 0.156532 20.7606 0.451038 20.3014C0.745544 19.8421 1.16567 19.4769 1.66162 19.2489L5.52333 17.5323C11.0192 15.0644 15.3584 10.5846 17.6471 5.0157L19.0151 1.7278C19.2152 1.21849 19.5643 0.781236 20.0168 0.473039C20.4693 0.164843 21.0042 0 21.5519 0C22.0995 0 22.6345 0.164843 23.087 0.473039C23.5395 0.781236 23.8885 1.21849 24.0887 1.7278L25.4513 5.01032C27.7376 10.5803 32.0749 15.062 37.5697 17.5323L41.4368 19.2543C41.9312 19.4829 42.3498 19.8481 42.6432 20.3067C42.9366 20.7654 43.0926 21.2984 43.0926 21.8427C43.0926 22.387 42.9366 22.92 42.6432 23.3786C42.3498 23.8373 41.9312 24.2024 41.4368 24.431L37.3435 26.2499C31.9834 28.6518 27.7192 32.9738 25.3921 38.3629M98.183 12.7646L71.5765 33.4391C50.3236 28.1979 29.9432 40.6123 24.2449 61.8733C23.6955 63.9182 23.5231 65.9899 23.3454 68.1639C22.726 75.6653 22.0151 84.3344 5.39407 96.8457C18.8589 104.917 43.0956 113 61.9572 113C68.081 112.995 74.1236 111.599 79.6287 108.919C85.1337 106.239 89.9573 102.345 93.7353 97.5293C97.5132 92.714 100.147 87.104 101.437 81.1229C102.727 75.1418 102.64 68.946 101.183 63.0034L121.865 36.4311C122.671 35.396 123.071 34.1023 122.99 32.7934C122.908 31.4844 122.351 30.2501 121.423 29.3225L105.298 13.2113C104.37 12.2833 103.135 11.7258 101.825 11.6436C100.515 11.5613 99.2197 11.96 98.183 12.7646ZM91.0036 44.589C90.6613 44.235 90.3129 43.887 89.9587 43.545L83.9049 37.4966L101.043 24.1781L110.447 33.5737L97.1112 50.6966L91.0036 44.589Z" fill="#AC60FD"/>
</svg>
