<svg width="24" height="24" viewBox="0 0 24 24" fill="none" xmlns="http://www.w3.org/2000/svg">
<path d="M2.66667 24C1.93333 24 1.30578 23.7391 0.784 23.2173C0.262222 22.6956 0.000888889 22.0676 0 21.3333V2.66667C0 1.93333 0.261333 1.30578 0.784 0.784C1.30667 0.262222 1.93422 0.000888889 2.66667 0H21.3333C22.0667 0 22.6947 0.261333 23.2173 0.784C23.74 1.30667 24.0009 1.93422 24 2.66667V21.3333C24 22.0667 23.7391 22.6947 23.2173 23.2173C22.6956 23.74 22.0676 24.0009 21.3333 24H2.66667ZM4 18.6667H20L15 12L11 17.3333L8 13.3333L4 18.6667Z" fill="#69D228"/>
</svg>
