<svg width="18" height="24" viewBox="0 0 18 24" fill="none" xmlns="http://www.w3.org/2000/svg">
<path d="M9 0C6.61305 0 4.32387 0.884997 2.63604 2.4603C0.948211 4.03561 0 6.17218 0 8.4C0 11.256 1.53 13.764 3.85714 15.288V18C3.85714 18.3183 3.9926 18.6235 4.23372 18.8485C4.47484 19.0736 4.80186 19.2 5.14286 19.2H12.8571C13.1981 19.2 13.5252 19.0736 13.7663 18.8485C14.0074 18.6235 14.1429 18.3183 14.1429 18V15.288C16.47 13.764 18 11.256 18 8.4C18 6.17218 17.0518 4.03561 15.364 2.4603C13.6761 0.884997 11.3869 0 9 0ZM5.14286 22.8C5.14286 23.1183 5.27832 23.4235 5.51943 23.6485C5.76055 23.8736 6.08758 24 6.42857 24H11.5714C11.9124 24 12.2394 23.8736 12.4806 23.6485C12.7217 23.4235 12.8571 23.1183 12.8571 22.8V21.6H5.14286V22.8Z" fill="#D6DCEC"/>
</svg>
