<svg width="24" height="24" viewBox="0 0 24 24" fill="none" xmlns="http://www.w3.org/2000/svg">
<path d="M18.2869 8.36687L22.0592 11.8479C22.6714 12.4053 23.158 13.0689 23.491 13.8005C23.8241 14.5321 23.9971 15.3172 24 16.1108C24.0028 16.9043 23.8356 17.6906 23.5078 18.4242C23.1801 19.1579 22.6983 19.8244 22.0902 20.3856C21.4821 20.9467 20.7598 21.3913 19.9647 21.6937C19.1697 21.9962 18.3177 22.1505 17.4577 22.1478C16.5978 22.1452 15.7469 21.9856 14.9541 21.6782C14.1613 21.3709 13.4422 20.9218 12.8382 20.357L11.5815 19.1973C11.4116 19.046 11.276 18.865 11.1827 18.6648C11.0894 18.4647 11.0403 18.2494 11.0381 18.0315C11.0359 17.8136 11.0808 17.5975 11.1701 17.3958C11.2594 17.1941 11.3914 17.0108 11.5583 16.8567C11.7252 16.7025 11.9237 16.5806 12.1422 16.498C12.3607 16.4154 12.5948 16.3737 12.8309 16.3755C13.067 16.3773 13.3004 16.4225 13.5174 16.5084C13.7344 16.5943 13.9307 16.7192 14.0948 16.8759L15.3539 18.0366C15.9106 18.5457 16.6632 18.8306 17.447 18.8289C18.2308 18.8272 18.982 18.5391 19.5361 18.0276C20.0903 17.5161 20.4023 16.8229 20.4039 16.0996C20.4055 15.3763 20.0966 14.6819 19.5447 14.1683L15.7724 10.6872C15.3646 10.3108 14.8467 10.0523 14.2822 9.94352C13.7176 9.8347 13.1309 9.88025 12.594 10.0746C12.4027 10.1446 12.2233 10.2161 12.0557 10.289L11.5056 10.5264C10.7706 10.8327 10.2051 10.964 9.48549 10.301C8.45171 9.34708 8.71964 8.46642 9.97986 7.66453C11.2352 6.8674 12.7535 6.50119 14.271 6.6295C15.7885 6.7578 17.2094 7.37251 18.2869 8.36687ZM11.1618 1.79201L12.4185 2.95164C12.7426 3.26099 12.922 3.67543 12.9182 4.10569C12.9144 4.53595 12.7276 4.94761 12.398 5.25201C12.0685 5.5564 11.6225 5.72918 11.1563 5.73312C10.69 5.73706 10.2407 5.57185 9.90517 5.27307L8.64732 4.11345C8.374 3.85216 8.04702 3.64372 7.68547 3.50029C7.32391 3.35686 6.93502 3.28131 6.54149 3.27806C6.14796 3.2748 5.75766 3.34389 5.39338 3.48132C5.02909 3.61874 4.69811 3.82173 4.41975 4.07845C4.14139 4.33517 3.92123 4.64048 3.7721 4.97655C3.62297 5.31263 3.54787 5.67275 3.55118 6.0359C3.55449 6.39904 3.63614 6.75795 3.79137 7.09166C3.94659 7.42538 4.17229 7.72723 4.45529 7.9796L8.22764 11.4607C8.63538 11.8371 9.15328 12.0955 9.71784 12.2044C10.2824 12.3132 10.8691 12.2676 11.406 12.0733C11.5973 12.0033 11.7767 11.9318 11.9443 11.8589L12.4944 11.6215C13.2294 11.3152 13.7961 11.1839 14.5145 11.8468C15.5483 12.8008 15.2804 13.6814 14.0201 14.4833C12.7648 15.2805 11.2465 15.6467 9.729 15.5184C8.2115 15.3901 6.79063 14.7754 5.71314 13.781L1.94078 10.2999C1.32864 9.74259 0.842028 9.07901 0.508952 8.3474C0.175875 7.6158 0.00291752 6.83062 3.65935e-05 6.03708C-0.00284433 5.24354 0.164409 4.45731 0.492166 3.72366C0.819923 2.99001 1.30171 2.32344 1.90979 1.76232C2.51786 1.20119 3.24021 0.75661 4.03525 0.454162C4.83029 0.151713 5.68231 -0.0026247 6.54226 3.37679e-05C7.4022 0.00269224 8.25308 0.162295 9.04591 0.469652C9.83873 0.777009 10.5578 1.22714 11.1618 1.79201Z" fill="#FC5B5B"/>
</svg>
