<svg width="24" height="21" viewBox="0 0 24 21" fill="none" xmlns="http://www.w3.org/2000/svg">
<path d="M15.3048 8.16667C16.464 8.16667 17.4048 9.08133 17.4048 10.2083V15.7488C17.4048 17.1415 16.8357 18.4772 15.8228 19.462C14.8099 20.4468 13.4361 21 12.0036 21C10.5711 21 9.1973 20.4468 8.18438 19.462C7.17145 18.4772 6.6024 17.1415 6.6024 15.7488V10.2083C6.6024 9.08133 7.542 8.16667 8.7024 8.16667H15.3048ZM6.1572 8.16667C5.7236 8.67156 5.46343 9.29574 5.4132 9.95167L5.4012 10.2083V15.7488C5.4012 16.737 5.6316 17.6727 6.042 18.508C5.6452 18.613 5.2312 18.6659 4.8 18.6667C4.16955 18.6667 3.54528 18.5459 2.96284 18.3113C2.3804 18.0767 1.8512 17.7329 1.40546 17.2994C0.959727 16.866 0.606186 16.3514 0.365034 15.785C0.123882 15.2187 -0.000157461 14.6118 1.50014e-07 13.9988V10.2083C1.98355e-05 9.69594 0.198205 9.2023 0.555216 8.82538C0.912227 8.44846 1.40196 8.21583 1.9272 8.17367L2.1 8.16667H6.1572ZM17.85 8.16667H21.9C23.0592 8.16667 24 9.08133 24 10.2083V14C24.0002 14.7154 23.8312 15.4212 23.5061 16.0629C23.181 16.7047 22.7085 17.2652 22.1251 17.7011C21.5417 18.137 20.863 18.4367 20.1415 18.577C19.42 18.7174 18.675 18.6945 17.964 18.5103C18.324 17.7777 18.5448 16.9703 18.594 16.1163L18.6048 15.7488V10.2083C18.6048 9.4325 18.3228 8.72083 17.85 8.16667ZM12 0C12.9548 0 13.8705 0.368749 14.5456 1.02513C15.2207 1.6815 15.6 2.57174 15.6 3.5C15.6 4.42826 15.2207 5.3185 14.5456 5.97487C13.8705 6.63125 12.9548 7 12 7C11.0452 7 10.1295 6.63125 9.45442 5.97487C8.77928 5.3185 8.4 4.42826 8.4 3.5C8.4 2.57174 8.77928 1.6815 9.45442 1.02513C10.1295 0.368749 11.0452 0 12 0ZM19.8 1.16667C20.5956 1.16667 21.3587 1.47396 21.9213 2.02094C22.4839 2.56792 22.8 3.30979 22.8 4.08333C22.8 4.85688 22.4839 5.59875 21.9213 6.14573C21.3587 6.69271 20.5956 7 19.8 7C19.0044 7 18.2413 6.69271 17.6787 6.14573C17.1161 5.59875 16.8 4.85688 16.8 4.08333C16.8 3.30979 17.1161 2.56792 17.6787 2.02094C18.2413 1.47396 19.0044 1.16667 19.8 1.16667ZM4.2 1.16667C4.99565 1.16667 5.75871 1.47396 6.32132 2.02094C6.88393 2.56792 7.2 3.30979 7.2 4.08333C7.2 4.85688 6.88393 5.59875 6.32132 6.14573C5.75871 6.69271 4.99565 7 4.2 7C3.40435 7 2.64129 6.69271 2.07868 6.14573C1.51607 5.59875 1.2 4.85688 1.2 4.08333C1.2 3.30979 1.51607 2.56792 2.07868 2.02094C2.64129 1.47396 3.40435 1.16667 4.2 1.16667Z" fill="#5ABAFF"/>
</svg>
