<svg width="24" height="24" viewBox="0 0 24 24" fill="none" xmlns="http://www.w3.org/2000/svg">
<path d="M11.2808 19.3922L20.1557 10.5173C18.6627 9.89358 17.3067 8.98278 16.1646 7.83658C15.0179 6.69428 14.1066 5.33785 13.4827 3.84433L4.60783 12.7192C3.91545 13.4116 3.56867 13.7584 3.27108 14.14C2.91996 14.5905 2.61862 15.0777 2.37231 15.5931C2.16472 16.0299 2.00992 16.4955 1.70033 17.4242L0.0659923 22.3237C-0.00922858 22.548 -0.0203887 22.7889 0.033766 23.0192C0.0879207 23.2495 0.205244 23.4601 0.372547 23.6275C0.53985 23.7948 0.750502 23.9121 0.980824 23.9662C1.21115 24.0204 1.45201 24.0092 1.67633 23.934L6.57576 22.2997C7.50573 21.9901 7.97011 21.8353 8.40689 21.6277C8.92447 21.3813 9.40886 21.0817 9.86004 20.7289C10.2416 20.4313 10.5884 20.0845 11.2808 19.3922ZM22.618 8.05498C23.5029 7.17009 24 5.96992 24 4.7185C24 3.46707 23.5029 2.26691 22.618 1.38202C21.7331 0.497126 20.5329 9.32383e-09 19.2815 0C18.0301 -9.32383e-09 16.8299 0.497126 15.945 1.38202L14.8807 2.44638L14.9263 2.57957C15.4506 4.08045 16.309 5.44266 17.4366 6.56343C18.5909 7.72477 20.0008 8.60005 21.5536 9.11934L22.618 8.05498Z" fill="#FF7F48"/>
</svg>
