<svg width="24" height="24" viewBox="0 0 24 24" fill="none" xmlns="http://www.w3.org/2000/svg">
<path d="M21.5775 24H2.4225C1.7565 24 1.1865 23.7625 0.7125 23.2875C0.2385 22.8125 0.001 22.243 0 21.579V2.4225C0 1.7565 0.2375 1.1865 0.7125 0.7125C1.1875 0.2385 1.7575 0.001 2.4225 0H21.5775C22.2435 0 22.8135 0.2375 23.2875 0.7125C23.7615 1.1875 23.999 1.7575 24 2.4225V21.5775C24 22.2435 23.7625 22.8135 23.2875 23.2875C22.8125 23.7615 22.2425 23.999 21.5775 24ZM2.652 14.943H21.345V13.269H2.6535L2.652 14.943ZM2.652 18.981H21.345V17.6535H2.6535L2.652 18.981Z" fill="#6933FF"/>
</svg>
