<svg width="24" height="24" viewBox="0 0 24 24" fill="none" xmlns="http://www.w3.org/2000/svg">
<path d="M3.6 0C2.64522 0 1.72955 0.379285 1.05442 1.05442C0.379285 1.72955 0 2.64522 0 3.6V24H20.4C21.3548 24 22.2705 23.6207 22.9456 22.9456C23.6207 22.2705 24 21.3548 24 20.4V8.4C24 7.44522 23.6207 6.52955 22.9456 5.85442C22.2705 5.17929 21.3548 4.8 20.4 4.8H3.6C3.28174 4.8 2.97652 4.67357 2.75147 4.44853C2.52643 4.22348 2.4 3.91826 2.4 3.6C2.4 3.28174 2.52643 2.97652 2.75147 2.75147C2.97652 2.52643 3.28174 2.4 3.6 2.4H21.6V0H3.6ZM19.2 15.6H15.6V13.2H19.2V15.6Z" fill="#FF7F48"/>
</svg>
