<svg width="24" height="24" viewBox="0 0 24 24" fill="none" xmlns="http://www.w3.org/2000/svg">
<path fill-rule="evenodd" clip-rule="evenodd" d="M0 12C0 5.3724 5.3724 0 12 0C18.6276 0 24 5.3724 24 12C24 18.6276 18.6276 24 12 24C5.3724 24 0 18.6276 0 12ZM15.6 8.4L11.1684 9.2868C10.7041 9.37984 10.2778 9.60814 9.94295 9.94295C9.60814 10.2778 9.37984 10.7041 9.2868 11.1684L8.4 15.6L12.8316 14.7132C13.2961 14.6204 13.7227 14.3922 14.0578 14.0573C14.3928 13.7225 14.6213 13.296 14.7144 12.8316L15.6 8.4Z" fill="#2B89ED"/>
</svg>
