<svg width="21" height="24" viewBox="0 0 21 24" fill="none" xmlns="http://www.w3.org/2000/svg">
<path fill-rule="evenodd" clip-rule="evenodd" d="M5.75633 0H15.2437C16.2773 0 17.1687 1.78814e-08 17.8827 0.0984C18.6468 0.204 19.3807 0.4428 19.9745 1.0548C20.5695 1.6668 20.8017 2.4204 20.9043 3.2064C21 3.9408 21 4.8576 21 5.9208V7.14C21 7.45826 20.8771 7.76348 20.6583 7.98853C20.4395 8.21357 20.1428 8.34 19.8333 8.34C19.5239 8.34 19.2272 8.21357 19.0084 7.98853C18.7896 7.76348 18.6667 7.45826 18.6667 7.14V6C18.6667 4.8348 18.6643 4.0812 18.592 3.5268C18.5232 3.006 18.4135 2.8428 18.3248 2.7516C18.2362 2.6604 18.0775 2.5476 17.5712 2.4768C17.0333 2.4024 16.2995 2.4 15.1667 2.4H11.6667V22.8C11.6667 23.1183 11.5437 23.4235 11.325 23.6485C11.1062 23.8736 10.8094 24 10.5 24C10.1906 24 9.89383 23.8736 9.67504 23.6485C9.45625 23.4235 9.33333 23.1183 9.33333 22.8V2.4H5.83333C4.7005 2.4 3.96783 2.4024 3.42883 2.4768C2.9225 2.5476 2.76383 2.6604 2.67517 2.7516C2.5865 2.8428 2.47683 3.006 2.408 3.5268C2.33567 4.08 2.33333 4.8348 2.33333 6V7.14C2.33333 7.45826 2.21042 7.76348 1.99162 7.98853C1.77283 8.21357 1.47609 8.34 1.16667 8.34C0.857247 8.34 0.560501 8.21357 0.341709 7.98853C0.122916 7.76348 0 7.45826 0 7.14V5.9208C0 4.8576 1.73847e-08 3.9408 0.0956667 3.2064C0.198333 2.4204 0.4305 1.6656 1.0255 1.0548C1.6205 0.4428 2.35317 0.204 3.11733 0.0984C3.83133 1.78814e-08 4.72267 0 5.75633 0Z" fill="#EF6284"/>
<path d="M4.66797 22.7998H16.3346" stroke="#EF6284" stroke-width="2" stroke-linecap="round" stroke-linejoin="round"/>
</svg>
