<svg width="16" height="9" viewBox="0 0 16 9" fill="none" xmlns="http://www.w3.org/2000/svg">
<path d="M0.218977 5.34784C0.067153 5.1873 -0.00572261 5.00001 0.000350364 4.78597C0.00642334 4.57192 0.085625 4.38463 0.237955 4.2241C0.38978 4.07694 0.566908 3.99988 0.76934 3.99293C0.971773 3.98597 1.1489 4.06303 1.30073 4.2241L3.99561 7.07359L4.2613 7.35452L4.52699 7.63546C4.67882 7.79599 4.75169 7.98328 4.74562 8.19733C4.73954 8.41137 4.66034 8.59866 4.50801 8.7592C4.35619 8.90635 4.17906 8.98341 3.97663 8.99037C3.7742 8.99732 3.59707 8.92027 3.44524 8.7592L0.218977 5.34784ZM8.26566 7.05352L14.7182 0.230801C14.87 0.0702661 15.0471 -0.0065231 15.2496 0.000433391C15.452 0.00738989 15.6291 0.0908677 15.781 0.250867C15.9201 0.411402 15.993 0.598692 15.9996 0.812738C16.0062 1.02678 15.9333 1.21407 15.781 1.37461L8.79705 8.7592C8.64522 8.91973 8.4681 9 8.26566 9C8.06323 9 7.8861 8.91973 7.73428 8.7592L4.50801 5.34784C4.36884 5.20068 4.29925 5.01687 4.29925 4.7964C4.29925 4.57593 4.36884 4.38517 4.50801 4.2241C4.65984 4.06356 4.84026 3.9833 5.04927 3.9833C5.25828 3.9833 5.43844 4.06356 5.58976 4.2241L8.26566 7.05352ZM11.473 1.39468L8.79705 4.2241C8.65788 4.37125 8.48404 4.44483 8.27553 4.44483C8.06703 4.44483 7.88661 4.37125 7.73428 4.2241C7.58245 4.06356 7.50654 3.87306 7.50654 3.65259C7.50654 3.43213 7.58245 3.24136 7.73428 3.08029L10.4102 0.250867C10.5494 0.10371 10.7234 0.0301324 10.9325 0.0301324C11.1415 0.0301324 11.3216 0.10371 11.473 0.250867C11.6248 0.411402 11.7007 0.601903 11.7007 0.82237C11.7007 1.04284 11.6248 1.23361 11.473 1.39468Z" fill="white"/>
</svg>
