<svg width="16" height="12" viewBox="0 0 16 12" fill="none" xmlns="http://www.w3.org/2000/svg">
<path d="M8.4711 1.86931C8.29841 1.99806 8.08877 2.06761 7.87337 2.06761H1.64103C1.2058 2.06761 0.788397 2.22875 0.480645 2.51557C0.172893 2.80239 0 3.1914 0 3.59702V6.65585C0 7.06147 0.172893 7.45049 0.480645 7.73731C0.788397 8.02413 1.2058 8.18526 1.64103 8.18526C2.09418 8.18526 2.46154 8.55262 2.46154 9.00577V11.2441C2.46154 11.4469 2.54799 11.6414 2.70186 11.7848C2.85574 11.9282 3.06444 12.0088 3.28205 12.0088H4.92308C5.14069 12.0088 5.34939 11.9282 5.50327 11.7848C5.65714 11.6414 5.74359 11.4469 5.74359 11.2441V9.18526C5.74359 8.63298 6.19131 8.18526 6.74359 8.18526H7.87337C8.08877 8.18526 8.29841 8.25481 8.4711 8.38356L10.71 10.0528C11.3695 10.5446 12.3077 10.0739 12.3077 9.25114V1.00174C12.3077 0.178993 11.3695 -0.291741 10.71 0.200041L8.4711 1.86931ZM16 5.12644C16 5.92815 15.7039 6.68388 15.1836 7.27906C14.7065 7.8248 13.9487 7.3666 13.9487 6.64172V3.62389C13.9487 2.89577 14.7114 2.43877 15.1884 2.9889C15.704 3.58362 16 4.3337 16 5.12644Z" fill="#6A7080"/>
</svg>
