<svg width="22" height="25" viewBox="0 0 22 25" fill="none" xmlns="http://www.w3.org/2000/svg">
<path d="M4.24805 11.5501C4.24805 8.15651 4.24805 6.45851 5.27366 5.4049C6.29811 4.3501 7.94912 4.3501 11.2488 4.3501H14.7492C18.0489 4.3501 19.6999 4.3501 20.7244 5.4049C21.75 6.45851 21.75 8.15651 21.75 11.5501V17.5502C21.75 20.9438 21.75 22.6418 20.7244 23.6954C19.6999 24.7502 18.0489 24.7502 14.7492 24.7502H11.2488C7.94912 24.7502 6.29811 24.7502 5.27366 23.6954C4.24805 22.6418 4.24805 20.9438 4.24805 17.5502V11.5501Z" fill="#B5EC5B"/>
<path d="M4.25039 21.1501C3.32203 21.1501 2.43169 20.7708 1.77524 20.0957C1.11879 19.4205 0.75 18.5049 0.75 17.5501V10.35C0.75 5.82482 0.75 3.56161 2.11748 2.15641C3.48497 0.7512 5.68438 0.75 10.0844 0.75H14.7515C15.6799 0.75 16.5702 1.12929 17.2267 1.80442C17.8831 2.47955 18.2519 3.39523 18.2519 4.35001" stroke="#B5EC5B" stroke-width="1.5"/>
</svg>
