<svg width="25" height="20" viewBox="0 0 25 20" fill="none" xmlns="http://www.w3.org/2000/svg">
<path fill-rule="evenodd" clip-rule="evenodd" d="M12.4991 5.71387C11.3427 5.71387 10.2336 6.1654 9.41582 6.96912C8.59808 7.77285 8.13867 8.86294 8.13867 9.99958C8.13867 11.1362 8.59808 12.2263 9.41582 13.03C10.2336 13.8338 11.3427 14.2853 12.4991 14.2853C13.6556 14.2853 14.7647 13.8338 15.5825 13.03C16.4002 12.2263 16.8596 11.1362 16.8596 9.99958C16.8596 8.86294 16.4002 7.77285 15.5825 6.96912C14.7647 6.1654 13.6556 5.71387 12.4991 5.71387ZM9.88286 9.99958C9.88286 9.3176 10.1585 8.66354 10.6491 8.18131C11.1398 7.69907 11.8053 7.42815 12.4991 7.42815C13.193 7.42815 13.8585 7.69907 14.3491 8.18131C14.8398 8.66354 15.1154 9.3176 15.1154 9.99958C15.1154 10.6816 14.8398 11.3356 14.3491 11.8179C13.8585 12.3001 13.193 12.571 12.4991 12.571C11.8053 12.571 11.1398 12.3001 10.6491 11.8179C10.1585 11.3356 9.88286 10.6816 9.88286 9.99958Z" fill="#D6DCEC"/>
<path fill-rule="evenodd" clip-rule="evenodd" d="M12.5 0C7.25116 0 3.71512 3.09029 1.66279 5.71086L1.62674 5.75771C1.16163 6.35086 0.734884 6.896 0.445349 7.54057C0.134884 8.232 0 8.98514 0 10C0 11.0149 0.134884 11.768 0.445349 12.4594C0.736046 13.104 1.16279 13.6503 1.62674 14.2423L1.66395 14.2891C3.71512 16.9097 7.25116 20 12.5 20C17.7488 20 21.2849 16.9097 23.3372 14.2891L23.3733 14.2423C23.8384 13.6503 24.2651 13.104 24.5547 12.4594C24.8651 11.768 25 11.0149 25 10C25 8.98514 24.8651 8.232 24.5547 7.54057C24.264 6.896 23.8372 6.35086 23.3733 5.75771L23.336 5.71086C21.2849 3.09029 17.7488 0 12.5 0ZM3.04651 6.75657C4.93953 4.33714 8.02326 1.71429 12.5 1.71429C16.9767 1.71429 20.0593 4.33714 21.9535 6.75657C22.4651 7.408 22.7628 7.79657 22.9593 8.23314C23.143 8.64229 23.2558 9.14172 23.2558 10C23.2558 10.8583 23.143 11.3577 22.9593 11.7669C22.7628 12.2034 22.464 12.592 21.9547 13.2434C20.0581 15.6629 16.9767 18.2857 12.5 18.2857C8.02326 18.2857 4.9407 15.6629 3.04651 13.2434C2.53488 12.592 2.23721 12.2034 2.0407 11.7669C1.85698 11.3577 1.74419 10.8583 1.74419 10C1.74419 9.14172 1.85698 8.64229 2.0407 8.23314C2.23721 7.79657 2.53721 7.408 3.04651 6.75657Z" fill="#D6DCEC"/>
</svg>
