<svg width="26" height="26" viewBox="0 0 26 26" fill="none" xmlns="http://www.w3.org/2000/svg">
<path d="M16.3484 9.62041C15.5106 8.78669 14.5169 8.12614 13.4239 7.67648C12.3309 7.22682 11.16 6.99685 9.97814 6.9997C8.79626 7.00256 7.62652 7.23818 6.5357 7.69312C5.44488 8.14806 4.45434 8.8134 3.62065 9.65116C2.78695 10.4889 2.12643 11.4827 1.67678 12.5757C1.22713 13.6688 0.997171 14.8397 1.00003 16.0216C1.00288 17.2035 1.2385 18.3733 1.69342 19.4641C2.14834 20.555 2.81366 21.5456 3.6514 22.3793C5.34327 24.063 7.63471 25.0057 10.0216 25C12.4085 24.9942 14.6954 24.0405 16.3791 22.3485C18.0628 20.6566 19.0055 18.3651 18.9997 15.9781C18.994 13.5911 18.0402 11.3042 16.3484 9.62041ZM16.3484 9.62041L25 1M25 1H19.0003M25 1V6.99994" stroke="#336CFF" stroke-width="2" stroke-linecap="round" stroke-linejoin="round"/>
</svg>
