<svg width="26" height="26" viewBox="0 0 26 26" fill="none" xmlns="http://www.w3.org/2000/svg">
<path d="M0.75 12.75C0.75 19.3776 6.1224 24.75 12.75 24.75C19.3776 24.75 24.75 19.3776 24.75 12.75C24.75 6.1224 19.3776 0.75 12.75 0.75C6.1224 0.75 0.75 6.1224 0.75 12.75Z" stroke="#6A7080" stroke-width="1.5" stroke-linecap="round" stroke-linejoin="round"/>
<path d="M13.9479 0.810059C13.9479 0.810059 17.5479 5.55006 17.5479 12.7501C17.5479 19.9501 13.9479 24.6901 13.9479 24.6901M11.5479 24.6901C11.5479 24.6901 7.94791 19.9501 7.94791 12.7501C7.94791 5.55006 11.5479 0.810059 11.5479 0.810059M1.50391 16.9501H23.9919M1.50391 8.55006H23.9919" stroke="#6A7080" stroke-width="1.5" stroke-linecap="round" stroke-linejoin="round"/>
</svg>
