<svg width="24" height="20" viewBox="0 0 24 20" fill="none" xmlns="http://www.w3.org/2000/svg">
<path d="M2.66667 4.51613C2.66667 3.92306 2.78737 3.3358 3.0219 2.78788C3.25642 2.23996 3.60016 1.7421 4.0335 1.32274C4.46684 0.903382 4.98129 0.570727 5.54748 0.34377C6.11366 0.116813 6.7205 0 7.33333 0C7.94617 0 8.553 0.116813 9.11919 0.34377C9.68538 0.570727 10.1998 0.903382 10.6332 1.32274C11.0665 1.7421 11.4102 2.23996 11.6448 2.78788C11.8793 3.3358 12 3.92306 12 4.51613C12 5.1092 11.8793 5.69646 11.6448 6.24438C11.4102 6.7923 11.0665 7.29015 10.6332 7.70951C10.1998 8.12888 9.68538 8.46153 9.11919 8.68849C8.553 8.91544 7.94617 9.03226 7.33333 9.03226C6.7205 9.03226 6.11366 8.91544 5.54748 8.68849C4.98129 8.46153 4.46684 8.12888 4.0335 7.70951C3.60016 7.29015 3.25642 6.7923 3.0219 6.24438C2.78737 5.69646 2.66667 5.1092 2.66667 4.51613ZM0 18.0645C0 14.1452 3.28333 10.9677 7.33333 10.9677C11.3833 10.9677 14.6667 14.1452 14.6667 18.0645V18.3065C14.6667 19.2419 13.8833 20 12.9167 20H1.75C0.783333 20 0 19.2419 0 18.3065V18.0645ZM18 1.93548C19.0609 1.93548 20.0783 2.34332 20.8284 3.06926C21.5786 3.79521 22 4.77981 22 5.80645C22 6.8331 21.5786 7.81769 20.8284 8.54364C20.0783 9.26959 19.0609 9.67742 18 9.67742C16.9391 9.67742 15.9217 9.26959 15.1716 8.54364C14.4214 7.81769 14 6.8331 14 5.80645C14 4.77981 14.4214 3.79521 15.1716 3.06926C15.9217 2.34332 16.9391 1.93548 18 1.93548ZM18 11.6129C21.3125 11.6129 24 14.2137 24 17.4194V18.3226C24 19.25 23.225 20 22.2667 20H16.2333C16.5083 19.496 16.6667 18.9194 16.6667 18.3065V18.0645C16.6667 15.9879 15.9417 14.0766 14.7292 12.5524C15.6708 11.9597 16.7958 11.6129 18 11.6129Z" fill="#336CFF"/>
</svg>
