<svg width="14" height="16" viewBox="0 0 14 16" fill="none" xmlns="http://www.w3.org/2000/svg">
<path d="M0 16V11.1134C0 10.8385 0.0694166 10.5773 0.20825 10.3299C0.347083 10.0825 0.540167 9.88316 0.7875 9.73196L1.75 9.13402C1.85208 10.2887 2.0125 11.2715 2.23125 12.0825C2.45 12.8935 2.79271 13.7938 3.25937 14.7835L0 16ZM4.57187 14.3505C4.06146 13.4433 3.68229 12.4811 3.43437 11.4639C3.18646 10.4467 3.0625 9.39519 3.0625 8.30928C3.0625 6.59107 3.42358 4.97265 4.14575 3.45402C4.86792 1.9354 5.81933 0.784055 7 0C8.18125 0.783505 9.13296 1.93485 9.85512 3.45402C10.5773 4.9732 10.9381 6.59162 10.9375 8.30928C10.9375 9.38144 10.8135 10.4228 10.5656 11.4334C10.3177 12.444 9.93854 13.4164 9.42812 14.3505H4.57187ZM7 8.57732C7.48125 8.57732 7.89337 8.41595 8.23637 8.0932C8.57937 7.77045 8.75058 7.38199 8.75 6.92783C8.74941 6.47368 8.57821 6.0855 8.23637 5.7633C7.89454 5.4411 7.48242 5.27945 7 5.27835C6.51758 5.27725 6.10575 5.4389 5.7645 5.7633C5.42325 6.0877 5.25175 6.47588 5.25 6.92783C5.24825 7.37979 5.41975 7.76825 5.7645 8.0932C6.10925 8.41814 6.52108 8.57952 7 8.57732ZM14 16L10.7406 14.7835C11.2073 13.7938 11.55 12.8935 11.7687 12.0825C11.9875 11.2715 12.1479 10.2887 12.25 9.13402L13.2125 9.73196C13.4604 9.88316 13.6538 10.0825 13.7926 10.3299C13.9315 10.5773 14.0006 10.8385 14 11.1134V16Z" fill="#336CFF"/>
</svg>
