<svg width="13" height="16" viewBox="0 0 13 16" fill="none" xmlns="http://www.w3.org/2000/svg">
<path fill-rule="evenodd" clip-rule="evenodd" d="M0.866667 2.84209e-10C0.636812 2.8421e-10 0.416372 0.0887215 0.253841 0.246647C0.0913094 0.404572 0 0.618765 0 0.842105V4.21053C0 4.43387 0.0913094 4.64806 0.253841 4.80598C0.416372 4.96391 0.636812 5.05263 0.866667 5.05263H4.33333V15.1579C4.33333 15.3812 4.42464 15.5954 4.58717 15.7534C4.74971 15.9113 4.97015 16 5.2 16H7.8C8.02985 16 8.25029 15.9113 8.41283 15.7534C8.57536 15.5954 8.66667 15.3812 8.66667 15.1579V5.05263H12.1333C12.3632 5.05263 12.5836 4.96391 12.7462 4.80598C12.9087 4.64806 13 4.43387 13 4.21053V3.36842C13 3.1451 12.9086 2.93094 12.7461 2.77305L12.1767 2.21979C11.4524 1.51602 10.5925 0.957764 9.64614 0.576892C8.6998 0.196019 7.68551 -8.61872e-06 6.6612 2.84209e-10H0.866667Z" fill="#6A7080"/>
</svg>
