<svg width="25" height="32" viewBox="0 0 25 32" fill="none" xmlns="http://www.w3.org/2000/svg">
<path d="M22.6249 14.5782C22.2142 14.0448 21.7143 13.5826 21.2501 13.1204C20.0539 12.0537 18.697 11.2892 17.5544 10.1692C14.8942 7.57355 14.305 3.28898 16.0011 0C14.305 0.408901 12.8231 1.33337 11.5555 2.34673C6.93133 6.04462 5.11024 12.5692 7.28841 18.1694C7.35982 18.3472 7.43124 18.525 7.43124 18.7561C7.43124 19.1472 7.16343 19.5028 6.80636 19.645C6.39572 19.8228 5.96722 19.7161 5.628 19.4317C5.52667 19.3471 5.44192 19.2447 5.37805 19.1294C3.36056 16.5871 3.03919 12.9426 4.39608 10.027C1.41448 12.4448 -0.210217 16.5338 0.021883 20.3917C0.129006 21.2806 0.236129 22.1695 0.539645 23.0584C0.7896 24.1251 1.27165 25.1918 1.80727 26.1341C3.73549 29.2097 7.07416 31.4142 10.6628 31.8587C14.4835 32.3387 18.5721 31.6453 21.5001 29.0142C24.7674 26.063 25.91 21.3339 24.2317 17.2805L23.9996 16.8183C23.6247 16.0005 22.6249 14.5782 22.6249 14.5782ZM16.9831 25.7785C16.4832 26.2052 15.6619 26.6674 15.0191 26.8452C13.0195 27.5563 11.0199 26.5608 9.84151 25.3874C11.9661 24.8896 13.2337 23.3251 13.6087 21.7428C13.9122 20.3206 13.3409 19.1472 13.1088 17.7783C12.8945 16.4627 12.9302 15.3427 13.4123 14.116C13.7515 14.7915 14.1086 15.4671 14.5371 16.0005C15.9118 17.7783 18.0721 18.5605 18.5364 20.9784C18.6078 21.2273 18.6435 21.4762 18.6435 21.7428C18.697 23.2007 18.0543 24.8007 16.9831 25.7785Z" fill="url(#paint0_radial_0_36)"/>
<defs>
<radialGradient id="paint0_radial_0_36" cx="0" cy="0" r="1" gradientTransform="matrix(-25 45.3333 13.7269 38.9984 25 -8.66666)" gradientUnits="userSpaceOnUse">
<stop stop-color="#FFBD5A"/>
<stop offset="0.494792" stop-color="#EF6284"/>
<stop offset="1" stop-color="#5D2076"/>
<stop offset="1" stop-color="#5B1F74"/>
</radialGradient>
</defs>
</svg>
