<svg width="16" height="16" viewBox="0 0 16 16" fill="none" xmlns="http://www.w3.org/2000/svg">
<path d="M6.87184 2.52955C6.70148 2.6998 6.56634 2.90195 6.47414 3.12444C6.38194 3.34693 6.33448 3.58541 6.33448 3.82624C6.33448 4.06708 6.38194 4.30555 6.47414 4.52804C6.56634 4.75053 6.70148 4.95268 6.87184 5.12294L10.8791 9.12969C11.0494 9.30003 11.2515 9.43515 11.4741 9.52734C11.6966 9.61953 11.9351 9.66698 12.1759 9.66698C12.4168 9.66698 12.6553 9.61953 12.8778 9.52734C13.1004 9.43515 13.3025 9.30003 13.4728 9.12969L13.9682 8.63368C14.7825 7.81967 15.2672 6.73341 15.329 5.58373C15.3908 4.43406 15.0253 3.30212 14.3029 2.40555L15.8538 0.853512C15.9002 0.807023 15.937 0.75185 15.9621 0.691143C15.9872 0.630436 16.0001 0.565383 16 0.4997C15.9999 0.434016 15.9869 0.368988 15.9617 0.308329C15.9365 0.247669 15.8996 0.192565 15.8532 0.146164C15.8067 0.0997623 15.7515 0.0629718 15.6908 0.0378931C15.63 0.0128143 15.565 -6.16854e-05 15.4993 2.2218e-07C15.4336 6.21297e-05 15.3686 0.0130607 15.3079 0.0382539C15.2472 0.063447 15.1921 0.100341 15.1457 0.14683L13.5962 1.69886C12.6995 0.976741 11.5676 0.611463 10.4179 0.67324C9.26824 0.735018 8.18198 1.21949 7.36791 2.03354L6.87184 2.52955ZM9.12817 10.8777C9.47202 11.2215 9.66519 11.6879 9.66519 12.1741C9.66519 12.6603 9.47202 13.1266 9.12817 13.4705L8.63209 13.9665C7.81814 14.7804 6.73206 15.2649 5.58254 15.3268C4.43303 15.3887 3.30118 15.0237 2.40451 14.3018L0.854286 15.8532C0.807879 15.8997 0.752768 15.9366 0.692101 15.9617C0.631433 15.9869 0.566397 15.9999 0.500705 16C0.435014 16.0001 0.369953 15.9872 0.309238 15.9621C0.248524 15.937 0.193343 15.9002 0.146849 15.8538C0.100354 15.8074 0.063455 15.7523 0.0382587 15.6917C0.0130624 15.631 6.21352e-05 15.566 2.22191e-07 15.5003C-6.16908e-05 15.4346 0.0128159 15.3696 0.0378978 15.3089C0.0629797 15.2481 0.0997747 15.193 0.146182 15.1465L1.69708 13.5945C0.974862 12.6979 0.609539 11.5661 0.671324 10.4166C0.733109 9.26708 1.21764 8.18096 2.03179 7.36699L2.52786 6.87031C2.87173 6.5265 3.3381 6.33335 3.82439 6.33335C4.31068 6.33335 4.77705 6.5265 5.12091 6.87031L9.12817 10.8777Z" fill="#66FFE8"/>
</svg>
