<svg width="16" height="14" viewBox="0 0 16 14" fill="none" xmlns="http://www.w3.org/2000/svg">
<path d="M8.20513 3.29412H1.64103C1.2058 3.29412 0.788397 3.46765 0.480645 3.77653C0.172893 4.08541 0 4.50435 0 4.94118V8.23529C0 8.67212 0.172893 9.09106 0.480645 9.39994C0.788397 9.70882 1.2058 9.88235 1.64103 9.88235H2.46154V13.1765C2.46154 13.3949 2.54799 13.6044 2.70186 13.7588C2.85574 13.9132 3.06444 14 3.28205 14H4.92308C5.14069 14 5.34939 13.9132 5.50327 13.7588C5.65714 13.6044 5.74359 13.3949 5.74359 13.1765V9.88235H8.20513L12.3077 13.1765V0L8.20513 3.29412ZM16 6.58824C16 7.99647 15.2123 9.27294 13.9487 9.88235V3.29412C15.2041 3.91176 16 5.18824 16 6.58824Z" fill="#FF9C55"/>
</svg>
