<svg width="16" height="13" viewBox="0 0 16 13" fill="none" xmlns="http://www.w3.org/2000/svg">
<path fill-rule="evenodd" clip-rule="evenodd" d="M0 6.5C0 7.8325 0.34 8.28019 1.02 9.178C2.3776 10.9688 4.6544 13 8 13C11.3456 13 13.6224 10.9688 14.98 9.178C15.66 8.281 16 7.83169 16 6.5C16 5.1675 15.66 4.71981 14.98 3.822C13.6224 2.03125 11.3456 0 8 0C4.6544 0 2.3776 2.03125 1.02 3.822C0.34 4.72063 0 5.16831 0 6.5ZM8 3.45312C7.20435 3.45312 6.44129 3.77413 5.87868 4.34553C5.31607 4.91693 5 5.69192 5 6.5C5 7.30808 5.31607 8.08307 5.87868 8.65447C6.44129 9.22587 7.20435 9.54688 8 9.54688C8.79565 9.54688 9.55871 9.22587 10.1213 8.65447C10.6839 8.08307 11 7.30808 11 6.5C11 5.69192 10.6839 4.91693 10.1213 4.34553C9.55871 3.77413 8.79565 3.45312 8 3.45312Z" fill="#336CFF"/>
</svg>
