<svg width="24" height="24" viewBox="0 0 24 24" fill="none" xmlns="http://www.w3.org/2000/svg">
<path d="M19.5 24C19.075 24 18.719 23.856 18.432 23.568C18.145 23.28 18.001 22.924 18 22.5V15C18 14.575 18.144 14.219 18.432 13.932C18.72 13.645 19.076 13.501 19.5 13.5H22.5C22.925 13.5 23.2815 13.644 23.5695 13.932C23.8575 14.22 24.001 14.576 24 15V22.5C24 22.925 23.856 23.2815 23.568 23.5695C23.28 23.8575 22.924 24.001 22.5 24H19.5ZM10.5 24C10.075 24 9.719 23.856 9.432 23.568C9.145 23.28 9.001 22.924 9 22.5V1.5C9 1.075 9.144 0.719 9.432 0.432C9.72 0.145 10.076 0.001 10.5 0H13.5C13.925 0 14.2815 0.144 14.5695 0.432C14.8575 0.72 15.001 1.076 15 1.5V22.5C15 22.925 14.856 23.2815 14.568 23.5695C14.28 23.8575 13.924 24.001 13.5 24H10.5ZM1.5 24C1.075 24 0.719 23.856 0.432 23.568C0.145 23.28 0.001 22.924 0 22.5V9C0 8.575 0.144 8.219 0.432 7.932C0.72 7.645 1.076 7.501 1.5 7.5H4.5C4.925 7.5 5.2815 7.644 5.5695 7.932C5.8575 8.22 6.001 8.576 6 9V22.5C6 22.925 5.856 23.2815 5.568 23.5695C5.28 23.8575 4.924 24.001 4.5 24H1.5Z" fill="#66FFE8"/>
</svg>
