<svg width="24" height="24" viewBox="0 0 24 24" fill="none" xmlns="http://www.w3.org/2000/svg">
<path d="M12 24C5.37273 24 0 18.6273 0 12C0 5.37273 5.37273 0 12 0C18.6273 0 24 5.37273 24 12C24 18.6273 18.6273 24 12 24ZM8.72727 12V7.63636H6.54545V12H8.72727ZM17.4545 12V7.63636H15.2727V12H17.4545ZM9.16364 14.7273L8.61818 13.7825L6.72982 14.8745L7.27527 15.8193C7.75423 16.6484 8.44301 17.3368 9.27238 17.8154C10.1017 18.2939 11.0425 18.5457 12 18.5455C12.9574 18.5454 13.898 18.2934 14.7272 17.8146C15.5564 17.3359 16.2449 16.6474 16.7236 15.8182L17.2702 14.8745L15.3818 13.7825L14.8364 14.7262C14.5491 15.2242 14.1357 15.6378 13.6377 15.9252C13.1398 16.2127 12.5749 16.3639 12 16.3636C11.4252 16.364 10.8604 16.213 10.3624 15.9257C9.86453 15.6384 9.45106 15.2251 9.16364 14.7273Z" fill="#FF7F48"/>
</svg>
