<svg width="16" height="16" viewBox="0 0 16 16" fill="none" xmlns="http://www.w3.org/2000/svg">
<path d="M14.1955 3.63411C14.2982 3.53148 14.425 3.45631 14.5642 3.4155C14.7035 3.3747 14.8508 3.36957 14.9926 3.4006C15.1344 3.43162 15.2661 3.4978 15.3756 3.59305C15.4851 3.6883 15.5689 3.80956 15.6193 3.94566C16.0218 5.02687 16.1073 6.20051 15.8656 7.32861C15.6239 8.45671 15.0651 9.49236 14.255 10.3138C13.4449 11.1352 12.417 11.7083 11.2923 11.9657C10.1676 12.223 8.99282 12.1539 7.90603 11.7665L4.43282 15.2395C4.1917 15.4806 3.90544 15.6719 3.5904 15.8024C3.27535 15.9328 2.93769 16 2.59669 16C2.25569 16 1.91802 15.9328 1.60298 15.8024C1.28793 15.6719 1.00168 15.4806 0.760553 15.2395C0.519428 14.9984 0.328157 14.7122 0.197661 14.3971C0.0671653 14.0821 -3.59304e-09 13.7445 0 13.4035C3.59304e-09 13.0625 0.0671653 12.7249 0.197661 12.4099C0.328157 12.0948 0.519428 11.8086 0.760553 11.5675L4.23376 8.09453C3.84614 7.00866 3.77646 5.83474 4.03291 4.71065C4.28936 3.58656 4.86128 2.55899 5.6815 1.74864C6.50172 0.938292 7.53618 0.37882 8.66335 0.135941C9.79053 -0.106938 10.9636 -0.0231365 12.0448 0.377502C12.1809 0.42787 12.3022 0.511658 12.3974 0.621157C12.4927 0.730656 12.5589 0.86235 12.5899 1.00412C12.6209 1.1459 12.6158 1.29319 12.575 1.43247C12.5342 1.57174 12.459 1.69852 12.3564 1.80113L10.3173 3.84008C10.0737 4.08349 9.93688 4.41368 9.9368 4.75799C9.93672 5.10231 10.0734 5.43256 10.3169 5.67609C10.5603 5.91961 10.8905 6.05647 11.2348 6.05655C11.5792 6.05663 11.9094 5.91993 12.153 5.67652L14.1955 3.63411Z" fill="#6A7080"/>
</svg>
