<svg width="11" height="16" viewBox="0 0 11 16" fill="none" xmlns="http://www.w3.org/2000/svg">
<path d="M6.54556 0.310634C6.65641 0.168161 6.81054 0.0672641 6.98375 0.0237919C7.15696 -0.0196803 7.33943 -0.00326465 7.50249 0.0704604C7.66555 0.144186 7.79997 0.271043 7.88463 0.431105C7.96929 0.591167 7.9994 0.775365 7.97022 0.954765L7.12106 6.15376H10.195C10.3463 6.15374 10.4945 6.19718 10.6227 6.27913C10.7509 6.36107 10.8538 6.47819 10.9197 6.61705C10.9856 6.75591 11.0117 6.91088 10.9952 7.0642C10.9786 7.21752 10.92 7.36297 10.826 7.48387L4.45364 15.6894C4.34279 15.8318 4.18865 15.9327 4.01544 15.9762C3.84224 16.0197 3.65977 16.0033 3.49671 15.9295C3.33365 15.8558 3.19923 15.729 3.11456 15.5689C3.0299 15.4088 2.9998 15.2246 3.02897 15.0452L3.87814 9.84624H0.804243C0.653007 9.84611 0.504864 9.80255 0.376793 9.72055C0.248722 9.63854 0.145905 9.52142 0.0801245 9.38259C0.0143439 9.24376 -0.0117384 9.08884 0.00486667 8.93559C0.0214718 8.78235 0.0800925 8.63697 0.174011 8.51613L6.54556 0.310634Z" fill="#D6DCEC"/>
</svg>
