<svg width="16" height="11" viewBox="0 0 16 11" fill="none" xmlns="http://www.w3.org/2000/svg">
<path d="M1.14286 0H6.85714C7.16025 0 7.45094 0.115893 7.66527 0.322183C7.87959 0.528473 8 0.808262 8 1.1C8 1.39174 7.87959 1.67153 7.66527 1.87782C7.45094 2.08411 7.16025 2.2 6.85714 2.2H1.14286C0.839753 2.2 0.549062 2.08411 0.334735 1.87782C0.120408 1.67153 0 1.39174 0 1.1C0 0.808262 0.120408 0.528473 0.334735 0.322183C0.549062 0.115893 0.839753 0 1.14286 0ZM9.14286 8.8H14.8571C15.1602 8.8 15.4509 8.91589 15.6653 9.12218C15.8796 9.32847 16 9.60826 16 9.9C16 10.1917 15.8796 10.4715 15.6653 10.6778C15.4509 10.8841 15.1602 11 14.8571 11H9.14286C8.83975 11 8.54906 10.8841 8.33474 10.6778C8.12041 10.4715 8 10.1917 8 9.9C8 9.60826 8.12041 9.32847 8.33474 9.12218C8.54906 8.91589 8.83975 8.8 9.14286 8.8ZM1.14286 4.4H14.8571C15.1602 4.4 15.4509 4.51589 15.6653 4.72218C15.8796 4.92847 16 5.20826 16 5.5C16 5.79174 15.8796 6.07153 15.6653 6.27782C15.4509 6.48411 15.1602 6.6 14.8571 6.6H1.14286C0.839753 6.6 0.549062 6.48411 0.334735 6.27782C0.120408 6.07153 0 5.79174 0 5.5C0 5.20826 0.120408 4.92847 0.334735 4.72218C0.549062 4.51589 0.839753 4.4 1.14286 4.4Z" fill="#D6DCEC"/>
</svg>
