<svg width="16" height="13" viewBox="0 0 16 13" fill="none" xmlns="http://www.w3.org/2000/svg">
<path d="M1.6 13C1.16 13 0.783467 12.841 0.4704 12.5231C0.157333 12.2051 0.000533333 11.8224 0 11.375V1.625C0 1.17812 0.1568 0.795708 0.4704 0.47775C0.784 0.159791 1.16053 0.000541667 1.6 0H5.56248C6.09828 0 6.61168 0.214993 6.98761 0.596791L7.41239 1.02821C7.78831 1.41001 8.30172 1.625 8.83752 1.625H14.4C14.84 1.625 15.2168 1.78425 15.5304 2.10275C15.844 2.42125 16.0005 2.80367 16 3.25V11.375C16 11.8219 15.8435 12.2046 15.5304 12.5231C15.2173 12.8416 14.8405 13.0005 14.4 13H1.6Z" fill="#D6DCEC"/>
</svg>
