<svg width="16" height="13" viewBox="0 0 16 13" fill="none" xmlns="http://www.w3.org/2000/svg">
<path d="M5.5625 1C5.83039 1.00001 6.08743 1.10793 6.27539 1.29883L6.7002 1.72949C7.26408 2.30218 8.03419 2.625 8.83789 2.625H14.4004C14.5675 2.62508 14.6885 2.67382 14.8174 2.80469C14.9468 2.93612 15.0002 3.06606 15 3.24902V11.375C15 11.5598 14.9465 11.6909 14.8174 11.8223C14.6897 11.9521 14.569 12.0002 14.4014 12H1.59961C1.43195 11.9999 1.31061 11.9513 1.18262 11.8213C1.08633 11.7234 1.03208 11.6252 1.01074 11.5039L1 11.374V1.625C1 1.44076 1.05371 1.31039 1.18262 1.17969C1.27959 1.08144 1.37245 1.02963 1.4834 1.00977L1.60156 1H5.5625Z" stroke="#336CFF" stroke-width="2"/>
</svg>
