<svg width="20" height="24" viewBox="0 0 20 24" fill="none" xmlns="http://www.w3.org/2000/svg">
<path d="M1.25 20.4C0.895837 20.4 0.599171 20.2848 0.360004 20.0544C0.120838 19.824 0.000837643 19.5392 4.31034e-06 19.2C-0.000829023 18.8608 0.119171 18.576 0.360004 18.3456C0.600838 18.1152 0.897504 18 1.25 18H2.5V9.6C2.5 7.94 3.02084 6.4652 4.0625 5.1756C5.10417 3.886 6.45833 3.0408 8.125 2.64V1.8C8.125 1.3 8.3075 0.875203 8.6725 0.525603C9.0375 0.176003 9.48 0.000802727 10 2.72727e-06C10.52 -0.000797273 10.9629 0.174403 11.3287 0.525603C11.6946 0.876803 11.8767 1.3016 11.875 1.8V2.64C13.5417 3.04 14.8958 3.8852 15.9375 5.1756C16.9792 6.466 17.5 7.9408 17.5 9.6V18H18.75C19.1042 18 19.4012 18.1152 19.6412 18.3456C19.8812 18.576 20.0008 18.8608 20 19.2C19.9992 19.5392 19.8792 19.8244 19.64 20.0556C19.4008 20.2868 19.1042 20.4016 18.75 20.4H1.25ZM10 24C9.3125 24 8.72417 23.7652 8.235 23.2956C7.74583 22.826 7.50083 22.2608 7.5 21.6H12.5C12.5 22.26 12.2554 22.8252 11.7662 23.2956C11.2771 23.766 10.6883 24.0008 10 24Z" fill="#D6DCEC"/>
</svg>
