<svg width="16" height="14" viewBox="0 0 16 14" fill="none" xmlns="http://www.w3.org/2000/svg">
<path d="M3.30233 4.75293L3.12998 5.13028C3.10305 5.19173 3.05761 5.24421 2.99938 5.28113C2.94116 5.31805 2.87276 5.33775 2.8028 5.33775C2.73283 5.33775 2.66443 5.31805 2.60621 5.28113C2.54799 5.24421 2.50255 5.19173 2.47561 5.13028L2.30326 4.75293C2.00023 4.08538 1.44528 3.55016 0.747908 3.25286L0.216145 3.02685C0.151632 2.99861 0.0969813 2.95336 0.0586716 2.89647C0.0203618 2.83957 0 2.77341 0 2.70584C0 2.63827 0.0203618 2.57211 0.0586716 2.51521C0.0969813 2.45831 0.151632 2.41306 0.216145 2.38482L0.718483 2.17215C1.43339 1.86639 1.99784 1.31137 2.29556 0.621415L2.47351 0.214063C2.49954 0.150963 2.54495 0.0967903 2.60381 0.0586067C2.66267 0.020423 2.73226 0 2.8035 0C2.87474 0 2.94432 0.020423 3.00318 0.0586067C3.06204 0.0967903 3.10745 0.150963 3.13349 0.214063L3.31074 0.620748C3.60814 1.31083 4.17234 1.86609 4.88711 2.17215L5.39015 2.38549C5.45447 2.41381 5.50892 2.45906 5.54709 2.51588C5.58526 2.5727 5.60554 2.63873 5.60554 2.70617C5.60554 2.77361 5.58526 2.83964 5.54709 2.89647C5.50892 2.95329 5.45447 2.99853 5.39015 3.02685L4.85769 3.2522C4.16045 3.54979 3.60575 4.08525 3.30303 4.75293M12.7718 1.58146L9.31076 4.1429C6.54616 3.49354 3.89505 5.03161 3.1538 7.66572C3.08234 7.91907 3.05992 8.17575 3.0368 8.44509C2.95623 9.37446 2.86375 10.4485 0.701668 11.9986C2.45319 12.9986 5.60594 14 8.05947 14C8.85607 13.9994 9.64209 13.8265 10.3582 13.4944C11.0743 13.1624 11.7018 12.6799 12.1932 12.0833C12.6846 11.4867 13.0272 10.7916 13.195 10.0506C13.3629 9.30961 13.3516 8.54199 13.162 7.80573L15.8524 4.51359C15.9572 4.38534 16.0092 4.22507 15.9987 4.06289C15.9881 3.90072 15.9156 3.7478 15.7949 3.63288L13.6973 1.63679C13.5766 1.52182 13.416 1.45275 13.2455 1.44256C13.0751 1.43237 12.9066 1.48177 12.7718 1.58146ZM11.8379 5.5243C11.7933 5.48045 11.748 5.43733 11.7019 5.39496L10.9145 4.64559L13.1438 2.99552L14.3671 4.15957L12.6324 6.281L11.8379 5.5243Z" fill="#FF7F48"/>
</svg>
