<svg width="23" height="18" viewBox="0 0 23 18" fill="none" xmlns="http://www.w3.org/2000/svg">
<path d="M13.2969 16.3929C13.2969 15.5052 12.4924 14.7857 11.5 14.7857L11.5 14.4643L12.9375 14.4643C13.9299 14.4643 14.7344 13.7448 14.7344 12.8571C14.7344 11.9695 13.9299 11.25 12.9375 11.25L11.5 11.25L11.5 10.9286L20.8437 10.9286C22.0346 10.9286 23 10.0651 23 9C23 7.93486 22.0346 7.07142 20.8437 7.07142L11.5 7.07142L11.5 6.52612L19.4759 3.72406C20.5844 3.33457 21.1299 2.2152 20.6944 1.22387C20.259 0.232504 19.0075 -0.255385 17.8991 0.134066L9.34856 3.13802L8.23126 1.88887C7.67845 1.27088 6.7049 1.10478 5.93661 1.49749L0.905355 4.06892C0.630319 4.20948 0.401722 4.41258 0.242727 4.65762C0.0837324 4.90267 -5.94851e-06 5.18096 -2.38851e-07 5.46428L-6.60354e-07 15.1071C-6.92954e-07 15.8529 0.573652 16.5008 1.3853 16.6716L7.49468 17.9573C7.62956 17.9857 7.76767 18 7.90625 18L11.5 18C12.4924 18 13.2969 17.2805 13.2969 16.3929Z" fill="#336CFF"/>
</svg>
