<svg width="24" height="24" viewBox="0 0 24 24" fill="none" xmlns="http://www.w3.org/2000/svg">
<path fill-rule="evenodd" clip-rule="evenodd" d="M14.2475 0.1824C13.7801 -5.36442e-08 13.1865 0 12.0004 0C10.8143 0 10.2218 -5.36442e-08 9.75321 0.1824C9.44486 0.302094 9.16447 0.478538 8.92817 0.701576C8.69188 0.924614 8.50435 1.18984 8.37637 1.482C8.25763 1.7496 8.21216 2.0628 8.19321 2.5176C8.1842 2.847 8.08719 3.16882 7.91131 3.45283C7.73543 3.73683 7.48645 3.97371 7.18774 4.1412C6.883 4.30212 6.54043 4.38737 6.19178 4.38905C5.84313 4.39073 5.49967 4.30878 5.19322 4.1508C4.76628 3.9372 4.4568 3.8196 4.15112 3.7812C3.48239 3.69831 2.8062 3.86904 2.26902 4.2564C1.86734 4.5468 1.5705 5.0316 0.978079 6C0.384397 6.9684 0.0888193 7.452 0.0218722 7.926C-0.0665486 8.5572 0.115346 9.1956 0.527134 9.7008C0.71408 9.9312 0.97808 10.1244 1.38608 10.3668C1.9886 10.7232 2.37513 11.3304 2.37513 12C2.37513 12.6696 1.9886 13.2768 1.38734 13.632C0.97808 13.8756 0.71408 14.0688 0.52587 14.2992C0.323218 14.5491 0.174397 14.8344 0.087917 15.1389C0.00143685 15.4435 -0.021006 15.7612 0.0218722 16.074C0.0888193 16.5468 0.384397 17.0316 0.978079 18C1.57176 18.9684 1.86734 19.452 2.26902 19.7436C2.8046 20.1312 3.48165 20.3016 4.15112 20.2188C4.4568 20.1804 4.76628 20.0628 5.19322 19.8492C5.49982 19.691 5.84351 19.6089 6.19241 19.6106C6.54131 19.6123 6.88411 19.6977 7.18901 19.8588C7.8029 20.1948 8.16669 20.8128 8.19321 21.4824C8.21216 21.9384 8.25763 22.2504 8.37637 22.518C8.63405 23.106 9.12921 23.574 9.75321 23.8176C10.2206 24 10.8143 24 12.0004 24C13.1865 24 13.7801 24 14.2475 23.8176C14.5559 23.6979 14.8363 23.5215 15.0725 23.2984C15.3088 23.0754 15.4964 22.8102 15.6243 22.518C15.7431 22.2504 15.7886 21.9384 15.8075 21.4824C15.8328 20.8128 16.1978 20.1936 16.813 19.8588C17.1177 19.6979 17.4603 19.6126 17.8089 19.6109C18.1576 19.6093 18.5011 19.6912 18.8075 19.8492C19.2344 20.0628 19.5439 20.1804 19.8496 20.2188C20.5191 20.3028 21.1961 20.1312 21.7317 19.7436C22.1334 19.4532 22.4302 18.9684 23.0226 18C23.6163 17.0316 23.9119 16.548 23.9788 16.074C24.0215 15.7611 23.9989 15.4434 23.9122 15.1388C23.8255 14.8343 23.6765 14.549 23.4736 14.2992C23.2866 14.0688 23.0226 13.8756 22.6146 13.6332C22.0121 13.2768 21.6256 12.6696 21.6256 12C21.6256 11.3304 22.0121 10.7232 22.6134 10.368C23.0226 10.1244 23.2866 9.9312 23.4748 9.7008C23.6775 9.45095 23.8263 9.16559 23.9128 8.86106C23.9993 8.55652 24.0217 8.23878 23.9788 7.926C23.9119 7.4532 23.6163 6.9684 23.0226 6C22.429 5.0316 22.1334 4.548 21.7317 4.2564C21.1945 3.86904 20.5183 3.69831 19.8496 3.7812C19.5439 3.8196 19.2344 3.9372 18.8075 4.1508C18.5009 4.309 18.1572 4.39106 17.8083 4.38938C17.4594 4.3877 17.1166 4.30234 16.8117 4.1412C16.5132 3.97356 16.2645 3.73662 16.0889 3.45263C15.9132 3.16863 15.8164 2.84689 15.8075 2.5176C15.7886 2.0616 15.7431 1.7496 15.6243 1.482C15.4964 1.18984 15.3088 0.924614 15.0725 0.701576C14.8363 0.478538 14.5559 0.302094 14.2475 0.1824ZM12.0004 15.6C14.1098 15.6 15.8189 13.9884 15.8189 12C15.8189 10.0116 14.1086 8.4 12.0004 8.4C9.89215 8.4 8.18185 10.0116 8.18185 12C8.18185 13.9884 9.89215 15.6 12.0004 15.6Z" fill="#6A7080"/>
</svg>
