<svg width="10" height="16" viewBox="0 0 10 16" fill="none" xmlns="http://www.w3.org/2000/svg">
<path d="M6.00713 13.626L8.27856 16L9.2857 14.9358L7.02142 12.5767M7.52856 7.83628H7.52142L4.99999 10.4707L2.47857 7.83628H2.47142C2.1402 7.49146 1.87758 7.08191 1.69862 6.63111C1.51966 6.18031 1.42789 5.69714 1.42857 5.2093C1.42857 4.22245 1.80484 3.27602 2.47461 2.57821C3.14439 1.8804 4.05279 1.48837 4.99999 1.48837C5.94719 1.48837 6.8556 1.8804 7.52537 2.57821C8.19514 3.27602 8.57141 4.22245 8.57141 5.2093C8.57141 6.23628 8.17142 7.16651 7.52856 7.83628ZM8.49999 8.93023C8.97629 8.44616 9.35448 7.8674 9.61214 7.22824C9.8698 6.58908 10.0017 5.90254 9.99998 5.2093C9.99998 3.82771 9.4732 2.5027 8.53552 1.52577C7.59784 0.548836 6.32607 0 4.99999 0C3.67391 0 2.40214 0.548836 1.46446 1.52577C0.526783 2.5027 0 3.82771 0 5.2093C0 6.66791 0.57857 7.98512 1.5 8.93023L3.99285 11.5349L0.714285 14.9358L1.72143 16L8.49999 8.93023Z" fill="#336CFF"/>
</svg>
