<svg width="40" height="34" viewBox="0 0 40 34" fill="none" xmlns="http://www.w3.org/2000/svg">
<path d="M3.63636 34C2.63636 34 1.78061 33.6499 1.06909 32.9496C0.357576 32.2493 0.00121212 31.4065 0 30.4211V8.97608C0 7.97192 0.814028 7.15789 1.81818 7.15789C2.82234 7.15789 3.63636 7.97192 3.63636 8.97608V28.4211C3.63636 29.5256 4.53179 30.4211 5.63636 30.4211H32.756C33.7443 30.4211 34.5455 31.2222 34.5455 32.2105C34.5455 33.1988 33.7443 34 32.756 34H3.63636ZM10.9091 26.8421C9.90909 26.8421 9.05333 26.492 8.34182 25.7917C7.6303 25.0914 7.27394 24.2486 7.27273 23.2632V3.57895C7.27273 2.59474 7.62909 1.75249 8.34182 1.05221C9.05454 0.35193 9.9103 0.00119298 10.9091 0H19.1809C19.7058 0 20.2097 0.206369 20.5838 0.574578L23.0526 3.00437C23.4267 3.37258 23.9306 3.57895 24.4555 3.57895H36.3636C37.3636 3.57895 38.22 3.92968 38.9327 4.63116C39.6455 5.33263 40.0012 6.17488 40 7.15789V23.2632C40 24.2474 39.6442 25.0902 38.9327 25.7917C38.2212 26.4932 37.3648 26.8433 36.3636 26.8421H10.9091ZM17.0801 16.4504C16.0513 17.763 16.9864 19.6842 18.6542 19.6842H28.6342C30.2991 19.6842 31.2351 17.7687 30.212 16.4552L28.0323 13.6571C27.2316 12.6291 25.6775 12.6291 24.8767 13.6571L23.6746 15.2004C22.9617 16.1156 21.5792 16.1192 20.8615 15.2078C20.1451 14.298 18.7659 14.2996 18.0516 15.2109L17.0801 16.4504Z" fill="#336CFF"/>
</svg>
