<svg width="16" height="13" viewBox="0 0 16 13" fill="none" xmlns="http://www.w3.org/2000/svg">
<path d="M1.77778 2.93548C1.77778 2.54999 1.85825 2.16827 2.0146 1.81212C2.17094 1.45597 2.40011 1.13237 2.689 0.859783C2.97789 0.587198 3.32086 0.370972 3.69832 0.22345C4.07578 0.0759286 4.48033 0 4.88889 0C5.29745 0 5.702 0.0759286 6.07946 0.22345C6.45692 0.370972 6.79988 0.587198 7.08878 0.859783C7.37767 1.13237 7.60683 1.45597 7.76318 1.81212C7.91953 2.16827 8 2.54999 8 2.93548C8 3.32098 7.91953 3.7027 7.76318 4.05885C7.60683 4.41499 7.37767 4.7386 7.08878 5.01118C6.79988 5.28377 6.45692 5.5 6.07946 5.64752C5.702 5.79504 5.29745 5.87097 4.88889 5.87097C4.48033 5.87097 4.07578 5.79504 3.69832 5.64752C3.32086 5.5 2.97789 5.28377 2.689 5.01118C2.40011 4.7386 2.17094 4.41499 2.0146 4.05885C1.85825 3.7027 1.77778 3.32098 1.77778 2.93548ZM0 11.7419C0 9.19436 2.18889 7.12903 4.88889 7.12903C7.58889 7.12903 9.77778 9.19436 9.77778 11.7419V11.8992C9.77778 12.5073 9.25556 13 8.61111 13H1.16667C0.522222 13 0 12.5073 0 11.8992V11.7419ZM12 1.25806C12.7072 1.25806 13.3855 1.52316 13.8856 1.99502C14.3857 2.46689 14.6667 3.10687 14.6667 3.77419C14.6667 4.44151 14.3857 5.0815 13.8856 5.55337C13.3855 6.02523 12.7072 6.29032 12 6.29032C11.2928 6.29032 10.6145 6.02523 10.1144 5.55337C9.61428 5.0815 9.33333 4.44151 9.33333 3.77419C9.33333 3.10687 9.61428 2.46689 10.1144 1.99502C10.6145 1.52316 11.2928 1.25806 12 1.25806ZM12 7.54839C14.2083 7.54839 16 9.23891 16 11.3226V11.9097C16 12.5125 15.4833 13 14.8444 13H10.8222C11.0056 12.6724 11.1111 12.2976 11.1111 11.8992V11.7419C11.1111 10.3921 10.6278 9.1498 9.81944 8.15907C10.4472 7.77379 11.1972 7.54839 12 7.54839Z" fill="#6A7080"/>
</svg>
