<svg width="16" height="18" viewBox="0 0 16 18" fill="none" xmlns="http://www.w3.org/2000/svg">
<path d="M3.08203 7.94992C3.08203 5.68751 3.08203 4.55551 3.76577 3.8531C4.44874 3.1499 5.54941 3.1499 7.74921 3.1499H10.0828C12.2826 3.1499 13.3833 3.1499 14.0662 3.8531C14.75 4.55551 14.75 5.68751 14.75 7.94992V11.9499C14.75 14.2123 14.75 15.3443 14.0662 16.0467C13.3833 16.7499 12.2826 16.7499 10.0828 16.7499H7.74921C5.54941 16.7499 4.44874 16.7499 3.76577 16.0467C3.08203 15.3443 3.08203 14.2123 3.08203 11.9499V7.94992Z" stroke="#6A7080" stroke-width="1.5"/>
<path d="M3.08359 14.35C2.46468 14.35 1.87112 14.0972 1.43349 13.6471C0.995859 13.197 0.75 12.5866 0.75 11.95V7.15002C0.75 4.13321 0.75 2.62441 1.66165 1.6876C2.57331 0.7508 4.03958 0.75 6.9729 0.75H10.0844C10.7033 0.75 11.2968 1.00286 11.7344 1.45295C12.1721 1.90303 12.4179 2.51349 12.4179 3.15001" stroke="#6A7080" stroke-width="1.5"/>
</svg>
