<svg width="24" height="18" viewBox="0 0 24 18" fill="none" xmlns="http://www.w3.org/2000/svg">
<path d="M12.8455 2.25114C12.4967 2.5179 12.0698 2.66243 11.6306 2.66243H2.46154C1.8087 2.66243 1.1826 2.91032 0.720968 3.35159C0.25934 3.79285 0 4.39133 0 5.01537V9.72125C0 10.3453 0.25934 10.9438 0.720968 11.385C1.1826 11.8263 1.8087 12.0742 2.46154 12.0742C3.14127 12.0742 3.69231 12.6252 3.69231 13.305V16.7801C3.69231 17.0921 3.82198 17.3913 4.05279 17.612C4.28361 17.8326 4.59666 17.9565 4.92308 17.9565H7.38462C7.71104 17.9565 8.02409 17.8326 8.2549 17.612C8.48571 17.3913 8.61539 17.0921 8.61539 16.7801V14.0742C8.61539 12.9696 9.51082 12.0742 10.6154 12.0742H11.6306C12.0698 12.0742 12.4967 12.2187 12.8455 12.4855L15.2466 14.3216C16.5627 15.328 18.4615 14.3896 18.4615 12.7329V2.00371C18.4615 0.346997 16.5627 -0.591375 15.2466 0.414996L12.8455 2.25114ZM24 7.36831C24 8.33298 23.7283 9.25437 23.2365 10.0482C22.4687 11.2876 20.9231 10.4127 20.9231 8.95466V5.80824C20.9231 4.34364 22.4781 3.47119 23.2454 4.71873C23.7304 5.50737 24 6.41791 24 7.36831Z" fill="#EF6284"/>
</svg>
