<svg width="16" height="16" viewBox="0 0 16 16" fill="none" xmlns="http://www.w3.org/2000/svg">
<path d="M7.9996 13.404L4.12169 15.85C3.95037 15.9641 3.77127 16.013 3.58439 15.9967C3.3975 15.9804 3.23397 15.9152 3.09381 15.801C2.95364 15.6869 2.84462 15.5444 2.76675 15.3735C2.68888 15.2026 2.67331 15.0108 2.72003 14.7982L3.74791 10.1753L0.313855 7.06889C0.158115 6.92213 0.0609338 6.75483 0.0223104 6.56697C-0.016313 6.37912 -0.0047883 6.19584 0.0568846 6.01712C0.118557 5.8384 0.212001 5.69164 0.337216 5.57684C0.46243 5.46204 0.633744 5.38866 0.851156 5.3567L5.38318 4.94089L7.13525 0.587036C7.21312 0.391357 7.33397 0.244598 7.49781 0.146759C7.66165 0.0489195 7.82891 0 7.9996 0C8.17029 0 8.33756 0.0489195 8.50139 0.146759C8.66523 0.244598 8.78609 0.391357 8.86396 0.587036L10.616 4.94089L15.148 5.3567C15.3661 5.38932 15.5374 5.46269 15.662 5.57684C15.7866 5.69099 15.88 5.83775 15.9423 6.01712C16.0046 6.19649 16.0164 6.3801 15.9778 6.56795C15.9392 6.7558 15.8417 6.92278 15.6853 7.06889L12.2513 10.1753L13.2792 14.7982C13.3259 15.0102 13.3103 15.2019 13.2325 15.3735C13.1546 15.545 13.0456 15.6876 12.9054 15.801C12.7652 15.9145 12.6017 15.9798 12.4148 15.9967C12.2279 16.0137 12.0488 15.9648 11.8775 15.85L7.9996 13.404Z" fill="#FFBD5A"/>
</svg>
